HIERARCHY
ROOT Hips
{
    OFFSET 0.000000 0.000000 0.000000
    CHANNELS 6 Xposition Yposition Zposition Zrotation Xrotation Yrotation
    JOINT Spine
    {
        OFFSET -0.000000 7.856138 0.000000
        CHANNELS 3 Zrotation Xrotation Yrotation
        JOINT Spine1
        {
            OFFSET -0.000000 20.830866 0.000000
            CHANNELS 3 Zrotation Xrotation Yrotation
            JOINT Neck
            {
                OFFSET -0.000000 20.745317 1.885938
                CHANNELS 3 Zrotation Xrotation Yrotation
                JOINT Head
                {
                    OFFSET -0.000000 13.412918 -1.916131
                    CHANNELS 3 Zrotation Xrotation Yrotation
                    End Site
                    {
                        OFFSET -0.000000 23.951641 0.000000
                    }
                }
            }
            JOINT LeftShoulder
            {
                OFFSET 3.826675 19.078362 -0.073511
                CHANNELS 3 Zrotation Xrotation Yrotation
                JOINT LeftArm
                {
                    OFFSET 10.442133 0.000000 0.000000
                    CHANNELS 3 Zrotation Xrotation Yrotation
                    JOINT LeftForeArm
                    {
                        OFFSET 37.051945 0.000000 0.000000
                        CHANNELS 3 Zrotation Xrotation Yrotation
                        JOINT LeftHand
                        {
                            OFFSET 24.394852 0.000000 0.000000
                            CHANNELS 3 Zrotation Xrotation Yrotation
                            End Site
                            {
                                OFFSET 14.370985 0.000000 0.000000
                            }
                        }
                    }
                }
            }
            JOINT RightShoulder
            {
                OFFSET -3.827599 19.078362 -0.073511
                CHANNELS 3 Zrotation Xrotation Yrotation
                JOINT RightArm
                {
                    OFFSET -10.442133 0.000000 0.000000
                    CHANNELS 3 Zrotation Xrotation Yrotation
                    JOINT RightForeArm
                    {
                        OFFSET -37.051945 0.000000 0.000000
                        CHANNELS 3 Zrotation Xrotation Yrotation
                        JOINT RightHand
                        {
                            OFFSET -24.394852 0.000000 0.000000
                            CHANNELS 3 Zrotation Xrotation Yrotation
                            End Site
                            {
                                OFFSET -14.370985 0.000000 0.000000
                            }
                        }
                    }
                }
            }
        }
    }
    JOINT LeftUpLeg
    {
        OFFSET 9.580656 0.000000 0.000000
        CHANNELS 3 Zrotation Xrotation Yrotation
        JOINT LeftLeg
        {
            OFFSET -0.000000 -43.769192 0.000000
            CHANNELS 3 Zrotation Xrotation Yrotation
            JOINT LeftFoot
            {
                OFFSET -0.000000 -42.531967 0.000000
                CHANNELS 3 Zrotation Xrotation Yrotation
                JOINT LeftToeBase
                {
                    OFFSET -0.000000 -6.227426 14.370985
                    CHANNELS 3 Zrotation Xrotation Yrotation
                    End Site
                    {
                        OFFSET -0.000000 0.000000 3.832262
                    }
                }
            }
        }
    }
    JOINT RightUpLeg
    {
        OFFSET -9.580656 0.000000 0.000000
        CHANNELS 3 Zrotation Xrotation Yrotation
        JOINT RightLeg
        {
            OFFSET -0.000000 -43.769192 0.000000
            CHANNELS 3 Zrotation Xrotation Yrotation
            JOINT RightFoot
            {
                OFFSET -0.000000 -42.531967 0.000000
                CHANNELS 3 Zrotation Xrotation Yrotation
                JOINT RightToeBase
                {
                    OFFSET -0.000000 -6.227426 14.370985
                    CHANNELS 3 Zrotation Xrotation Yrotation
                    End Site
                    {
                        OFFSET -0.000000 0.000000 3.832262
                    }
                }
            }
        }
    }
}
MOTION
Frames:    10
Frame Time:    0.008333
-72.756866    91.977844    22.969755    -2.085135    -4.664615    93.484589    1.561667    -8.140336    -0.250111    7.858953    10.496655    -1.084444    6.870775    -3.133578    -1.550980    -1.969216    -2.216943    -3.146013    -4.626566    14.254290    3.712250    -37.578259    56.381653    -30.792797    3.715220    -16.440884    -31.281521    -2.787950    -15.736812    12.590714    3.532641    14.824762    -1.137964    48.816986    51.464386    16.937489    -3.634511    -22.022089    17.686993    -8.087680    -20.718914    -11.754832    13.761441    -4.845182    -1.939633    -24.791225    54.580753    14.346262    6.078641    -5.333024    17.337200    0.000000    0.000000    0.000000    5.593269    -11.923991    4.994196    3.983788    11.588902    2.968912    -1.499474    -7.004349    -13.801191    0.000000    0.000000    0.000000    
-71.908806    92.121262    22.999210    -2.303376    -4.388606    93.368515    1.593915    -8.014302    -0.017275    7.372434    10.145751    -0.784344    6.713216    -2.900917    -1.748591    -1.695149    -2.355669    -3.267611    -4.671357    14.336980    3.631902    -38.192646    56.082474    -30.000593    3.722452    -15.813601    -31.223137    -3.568115    -15.171076    11.952983    3.763288    14.952436    -0.988555    48.308559    51.395817    17.439249    -3.510892    -22.180187    17.706503    -9.177569    -20.774593    -11.962891    13.513184    -6.381805    -1.485590    -25.441420    55.264992    15.929741    7.086485    -6.263748    17.084108    0.000000    0.000000    0.000000    5.319436    -11.380512    5.095548    4.048606    11.198100    2.801131    -1.420226    -7.268958    -13.654163    0.000000    0.000000    0.000000    
-70.986328    92.285370    23.024811    -2.530403    -4.011061    92.931007    1.655700    -8.526334    0.179412    6.790500    10.857362    -0.589310    5.956260    -2.921459    -1.851065    -0.668050    -2.587718    -3.077060    -4.756953    14.223298    4.197940    -37.488831    56.367249    -30.298294    3.523795    -15.847815    -31.619505    -3.834899    -15.263851    11.663523    3.519012    14.927310    -0.611824    47.591877    51.800137    18.595240    -4.027752    -22.317383    17.722246    -8.937361    -20.834074    -12.327201    13.260061    -7.692087    -0.805002    -26.060766    55.456234    16.781031    7.656093    -6.773908    17.205065    0.000000    0.000000    0.000000    5.028010    -10.806887    5.067590    3.978467    10.852240    3.142881    -1.292739    -7.470315    -13.568380    0.000000    0.000000    0.000000    
-70.106506    92.412148    23.063513    -2.689962    -3.708691    92.733994    1.444635    -8.375248    0.481799    6.623723    10.503530    -0.233439    6.073928    -2.896884    -2.017556    -1.046655    -2.234328    -3.328828    -4.763486    14.348560    4.077446    -38.372074    55.927593    -29.430294    3.345473    -15.545080    -31.575134    -3.635659    -14.988089    11.577603    3.649472    15.055189    -0.689510    46.845074    51.959465    19.317228    -4.023230    -22.333536    17.627861    -9.365608    -20.805202    -12.398224    13.073395    -9.074285    -0.402332    -26.640467    55.633865    17.311161    6.468793    -7.570417    17.486099    0.000000    0.000000    0.000000    4.782663    -10.151300    4.997667    3.924138    10.360019    2.876556    -1.212083    -7.639585    -13.077407    0.000000    0.000000    0.000000    
-69.190613    92.550613    23.054756    -2.833275    -3.257296    92.262260    1.366614    -8.745310    0.708627    6.246274    11.125362    -0.004804    5.541859    -2.659743    -2.138893    -0.672349    -2.863344    -3.293428    -4.977495    14.058162    4.502446    -38.437088    55.945301    -29.026482    3.000155    -15.710059    -31.858290    -3.055622    -15.189803    11.828978    3.144983    14.924782    -0.219806    46.637291    51.724098    20.025215    -3.947658    -22.201252    17.887114    -10.020985    -20.591843    -12.578787    12.665843    -10.193601    0.108568    -26.926947    55.287479    17.813818    7.041724    -8.018755    17.549944    0.000000    0.000000    0.000000    4.380536    -9.488591    4.990153    3.891203    9.915743    2.622052    -1.064436    -7.809733    -12.428910    0.000000    0.000000    0.000000    
-68.354973    92.644554    23.105701    -2.875918    -3.007476    92.303566    0.783012    -8.536880    1.113119    6.595945    10.948399    0.421850    5.313373    -2.680061    -2.654422    -0.364476    -2.826145    -3.739867    -4.724033    14.320326    3.847074    -39.510021    55.131546    -28.492958    2.865603    -15.613839    -31.530161    -2.511983    -15.088229    11.999104    3.304005    14.713998    -0.850462    45.747429    52.397327    20.553968    -4.090568    -22.373039    18.324335    -9.980167    -20.730890    -12.613311    12.600727    -11.603695    0.018490    -27.871422    55.127556    18.504547    6.391120    -8.734904    17.714182    0.000000    0.000000    0.000000    4.154022    -8.761932    4.634982    3.840243    9.464525    2.427305    -0.984793    -8.012525    -11.993389    0.000000    0.000000    0.000000    
-67.393967    92.744026    23.106462    -2.982473    -2.642106    91.840691    0.763162    -8.932886    1.343147    6.209504    11.547804    0.655056    5.228562    -2.723709    -2.639608    -0.682965    -2.735390    -3.764385    -4.907778    14.063547    4.234789    -39.669899    55.204369    -27.963137    2.570663    -15.995230    -31.827848    -1.543740    -15.451369    12.421433    2.892222    14.657260    -0.463246    45.099678    52.818581    21.589830    -4.322143    -22.541500    18.501215    -10.974932    -20.686386    -13.381222    12.334091    -12.588575    0.435139    -27.931807    54.498497    18.237146    6.455891    -9.201502    18.052744    0.000000    0.000000    0.000000    3.828913    -8.059801    4.665889    3.821627    9.087914    2.609814    -0.916503    -8.288097    -11.797844    0.000000    0.000000    0.000000    
-66.499924    92.827477    23.101398    -3.032483    -2.305281    91.402603    0.670523    -8.838795    1.736683    5.898316    11.472375    1.091836    4.759670    -2.682638    -2.967071    -0.154223    -2.431064    -3.934168    -4.991169    14.244036    4.250597    -39.933743    54.904377    -27.558746    2.386055    -16.333849    -31.855236    -0.809227    -15.765667    12.655521    2.869920    14.589425    -0.490366    44.559151    52.890999    22.097874    -4.277708    -22.410500    18.849585    -10.901548    -20.575314    -13.169260    12.026257    -13.583113    0.781795    -28.017540    53.629086    18.765396    5.742265    -9.910880    18.211271    0.000000    0.000000    0.000000    3.533283    -7.397329    4.683635    3.779564    8.792074    2.683180    -0.851224    -8.517556    -11.500710    0.000000    0.000000    0.000000    
-65.600189    92.895920    23.115305    -3.105758    -2.014829    91.126152    0.524069    -8.804267    2.004824    5.690667    11.494941    1.391236    4.570915    -2.423542    -3.163992    -0.151121    -2.657221    -4.095735    -5.021897    14.266606    4.343583    -40.281731    54.825813    -27.086378    2.256970    -16.808699    -31.966196    0.095950    -16.178259    13.154704    2.674992    14.422608    -0.510934    43.868542    53.760078    22.874973    -4.934532    -22.568455    19.142080    -10.887232    -20.576826    -13.674642    11.753304    -14.668540    1.009958    -27.609962    52.838028    18.372498    5.096043    -10.434183    18.213917    0.000000    0.000000    0.000000    3.248797    -6.746871    4.593168    3.773784    8.483475    2.747063    -0.918406    -8.760674    -11.205894    0.000000    0.000000    0.000000    
-64.752327    92.960999    23.118738    -3.161926    -1.785328    90.915825    0.559992    -8.589813    2.230176    5.257668    11.287343    1.668169    4.375064    -2.331287    -3.379040    -0.012342    -2.476500    -4.259658    -4.999787    14.354506    4.475419    -40.521263    54.871212    -26.668848    2.274676    -17.354858    -32.051403    0.697171    -16.651703    13.410873    2.576552    14.392571    -0.416257    43.638107    53.595081    23.301281    -5.088862    -22.364973    19.529533    -11.246048    -20.287916    -13.683464    11.511665    -15.678422    1.043086    -27.385521    51.626858    18.276342    5.139544    -11.039124    18.681236    0.000000    0.000000    0.000000    3.005203    -6.155664    4.403768    3.780608    8.287175    3.161335    -0.957107    -8.969332    -11.281679    0.000000    0.000000    0.000000    
